<mxfile host="65bd71144e">
    <diagram id="3L20UBSQIsQVpftriw2r" name="ページ1">
        <mxGraphModel dx="609" dy="334" grid="1" gridSize="10" guides="1" tooltips="1" connect="1" arrows="1" fold="1" page="1" pageScale="1" pageWidth="1169" pageHeight="827" math="0" shadow="0">
            <root>
                <mxCell id="0"/>
                <mxCell id="1" parent="0"/>
                <mxCell id="86" value="" style="rounded=0;whiteSpace=wrap;html=1;fillColor=none;" parent="1" vertex="1">
                    <mxGeometry x="20" y="245" width="200" height="100" as="geometry"/>
                </mxCell>
                <mxCell id="2" value="" style="rounded=0;whiteSpace=wrap;html=1;fillColor=#f5f5f5;fontColor=#333333;strokeColor=#666666;" parent="1" vertex="1">
                    <mxGeometry x="130" y="80" width="360" height="60" as="geometry"/>
                </mxCell>
                <mxCell id="3" value="レンダリング" style="rounded=0;whiteSpace=wrap;html=1;" parent="1" vertex="1">
                    <mxGeometry x="140" y="90" width="100" height="40" as="geometry"/>
                </mxCell>
                <mxCell id="4" value="" style="rounded=0;whiteSpace=wrap;html=1;fillColor=#f5f5f5;fontColor=#333333;strokeColor=#666666;" parent="1" vertex="1">
                    <mxGeometry x="500" y="80" width="200" height="120" as="geometry"/>
                </mxCell>
                <mxCell id="6" value="LED駆動" style="rounded=0;whiteSpace=wrap;html=1;" parent="1" vertex="1">
                    <mxGeometry x="380" y="90" width="100" height="40" as="geometry"/>
                </mxCell>
                <mxCell id="7" value="フレームバッファ" style="rounded=0;whiteSpace=wrap;html=1;" parent="1" vertex="1">
                    <mxGeometry x="260" y="90" width="100" height="40" as="geometry"/>
                </mxCell>
                <mxCell id="8" value="D0" style="rounded=0;whiteSpace=wrap;html=1;" parent="1" vertex="1">
                    <mxGeometry x="520" y="90" width="40" height="40" as="geometry"/>
                </mxCell>
                <mxCell id="9" value="D1" style="rounded=0;whiteSpace=wrap;html=1;" parent="1" vertex="1">
                    <mxGeometry x="580" y="90" width="40" height="40" as="geometry"/>
                </mxCell>
                <mxCell id="10" value="D2" style="rounded=0;whiteSpace=wrap;html=1;" parent="1" vertex="1">
                    <mxGeometry x="640" y="90" width="40" height="40" as="geometry"/>
                </mxCell>
                <mxCell id="12" value="" style="endArrow=classic;html=1;" parent="1" edge="1">
                    <mxGeometry width="50" height="50" relative="1" as="geometry">
                        <mxPoint x="560" y="109.73" as="sourcePoint"/>
                        <mxPoint x="580" y="109.73" as="targetPoint"/>
                        <Array as="points">
                            <mxPoint x="580" y="109.73"/>
                        </Array>
                    </mxGeometry>
                </mxCell>
                <mxCell id="13" value="" style="endArrow=classic;html=1;" parent="1" edge="1">
                    <mxGeometry width="50" height="50" relative="1" as="geometry">
                        <mxPoint x="620" y="109.73" as="sourcePoint"/>
                        <mxPoint x="640" y="109.73" as="targetPoint"/>
                        <Array as="points">
                            <mxPoint x="640" y="109.73"/>
                        </Array>
                    </mxGeometry>
                </mxCell>
                <mxCell id="14" value="Dn" style="rounded=0;whiteSpace=wrap;html=1;" parent="1" vertex="1">
                    <mxGeometry x="640" y="150" width="40" height="40" as="geometry"/>
                </mxCell>
                <mxCell id="15" value="Dn-1" style="rounded=0;whiteSpace=wrap;html=1;" parent="1" vertex="1">
                    <mxGeometry x="580" y="150" width="40" height="40" as="geometry"/>
                </mxCell>
                <mxCell id="16" value="Dn-2" style="rounded=0;whiteSpace=wrap;html=1;" parent="1" vertex="1">
                    <mxGeometry x="520" y="150" width="40" height="40" as="geometry"/>
                </mxCell>
                <mxCell id="17" value="" style="endArrow=classic;html=1;" parent="1" edge="1">
                    <mxGeometry width="50" height="50" relative="1" as="geometry">
                        <mxPoint x="560" y="169.91" as="sourcePoint"/>
                        <mxPoint x="580" y="169.91" as="targetPoint"/>
                        <Array as="points">
                            <mxPoint x="580" y="169.91"/>
                        </Array>
                    </mxGeometry>
                </mxCell>
                <mxCell id="19" value="" style="endArrow=classic;html=1;" parent="1" edge="1">
                    <mxGeometry width="50" height="50" relative="1" as="geometry">
                        <mxPoint x="620" y="169.91" as="sourcePoint"/>
                        <mxPoint x="640" y="169.91" as="targetPoint"/>
                        <Array as="points">
                            <mxPoint x="640" y="169.91"/>
                        </Array>
                    </mxGeometry>
                </mxCell>
                <mxCell id="20" value="" style="endArrow=classic;html=1;dashed=1;" parent="1" edge="1">
                    <mxGeometry width="50" height="50" relative="1" as="geometry">
                        <mxPoint x="680" y="110" as="sourcePoint"/>
                        <mxPoint x="520" y="170" as="targetPoint"/>
                        <Array as="points">
                            <mxPoint x="690" y="110"/>
                            <mxPoint x="690" y="140"/>
                            <mxPoint x="510" y="140"/>
                            <mxPoint x="510" y="170"/>
                        </Array>
                    </mxGeometry>
                </mxCell>
                <mxCell id="23" value="&lt;span style=&quot;background-color: rgb(255, 255, 255);&quot;&gt;マイクロコントローラー&lt;/span&gt;" style="rounded=0;whiteSpace=wrap;html=1;fillColor=none;strokeColor=none;" parent="1" vertex="1">
                    <mxGeometry x="130" y="70" width="140" height="20" as="geometry"/>
                </mxCell>
                <mxCell id="26" value="" style="endArrow=classic;html=1;" parent="1" edge="1">
                    <mxGeometry width="50" height="50" relative="1" as="geometry">
                        <mxPoint x="240" y="109.9" as="sourcePoint"/>
                        <mxPoint x="260" y="109.9" as="targetPoint"/>
                        <Array as="points">
                            <mxPoint x="260" y="109.9"/>
                        </Array>
                    </mxGeometry>
                </mxCell>
                <mxCell id="28" value="" style="endArrow=classic;html=1;" parent="1" edge="1">
                    <mxGeometry width="50" height="50" relative="1" as="geometry">
                        <mxPoint x="360" y="109.9" as="sourcePoint"/>
                        <mxPoint x="380" y="109.9" as="targetPoint"/>
                        <Array as="points">
                            <mxPoint x="380" y="109.9"/>
                        </Array>
                    </mxGeometry>
                </mxCell>
                <mxCell id="30" value="" style="endArrow=classic;html=1;entryX=0;entryY=0.5;entryDx=0;entryDy=0;" parent="1" target="8" edge="1">
                    <mxGeometry width="50" height="50" relative="1" as="geometry">
                        <mxPoint x="480" y="109.88" as="sourcePoint"/>
                        <mxPoint x="510" y="110" as="targetPoint"/>
                    </mxGeometry>
                </mxCell>
                <mxCell id="31" value="&lt;span style=&quot;background-color: rgb(255, 255, 255);&quot;&gt;LEDマトリクス&lt;/span&gt;" style="rounded=0;whiteSpace=wrap;html=1;fillColor=none;strokeColor=none;" parent="1" vertex="1">
                    <mxGeometry x="500" y="70" width="100" height="20" as="geometry"/>
                </mxCell>
                <mxCell id="35" value="" style="rounded=0;whiteSpace=wrap;html=1;fillColor=#f5f5f5;fontColor=#333333;strokeColor=#666666;" parent="1" vertex="1">
                    <mxGeometry x="560" y="280" width="120" height="60" as="geometry"/>
                </mxCell>
                <mxCell id="36" value="レンダリング" style="rounded=0;whiteSpace=wrap;html=1;" parent="1" vertex="1">
                    <mxGeometry x="570" y="290" width="100" height="40" as="geometry"/>
                </mxCell>
                <mxCell id="37" value="&lt;span style=&quot;background-color: rgb(255, 255, 255);&quot;&gt;SBC(RPi4)&lt;/span&gt;" style="rounded=0;whiteSpace=wrap;html=1;fillColor=none;strokeColor=none;" parent="1" vertex="1">
                    <mxGeometry x="560" y="270" width="70" height="20" as="geometry"/>
                </mxCell>
                <mxCell id="59" value="SBC: レンダリング" style="rounded=0;whiteSpace=wrap;html=1;fillColor=none;" parent="1" vertex="1">
                    <mxGeometry x="280" y="245" width="200" height="40" as="geometry"/>
                </mxCell>
                <mxCell id="60" value="FPGA: LED駆動" style="rounded=0;whiteSpace=wrap;html=1;fillColor=none;" parent="1" vertex="1">
                    <mxGeometry x="280" y="305" width="200" height="40" as="geometry"/>
                </mxCell>
                <mxCell id="61" value="LEDマトリクス(NeoPixel × N個)" style="rounded=0;whiteSpace=wrap;html=1;fillColor=none;" parent="1" vertex="1">
                    <mxGeometry x="280" y="365" width="200" height="40" as="geometry"/>
                </mxCell>
                <mxCell id="62" value="" style="endArrow=classic;html=1;strokeWidth=2;" parent="1" edge="1">
                    <mxGeometry width="50" height="50" relative="1" as="geometry">
                        <mxPoint x="380" y="285" as="sourcePoint"/>
                        <mxPoint x="380" y="305" as="targetPoint"/>
                    </mxGeometry>
                </mxCell>
                <mxCell id="64" value="" style="endArrow=classic;html=1;strokeWidth=2;" parent="1" edge="1">
                    <mxGeometry width="50" height="50" relative="1" as="geometry">
                        <mxPoint x="300" y="345" as="sourcePoint"/>
                        <mxPoint x="300" y="365" as="targetPoint"/>
                    </mxGeometry>
                </mxCell>
                <mxCell id="67" value="" style="endArrow=classic;html=1;strokeWidth=2;" parent="1" edge="1">
                    <mxGeometry width="50" height="50" relative="1" as="geometry">
                        <mxPoint x="320.16" y="345" as="sourcePoint"/>
                        <mxPoint x="320.16" y="365" as="targetPoint"/>
                    </mxGeometry>
                </mxCell>
                <mxCell id="68" value="" style="endArrow=classic;html=1;strokeWidth=2;" parent="1" edge="1">
                    <mxGeometry width="50" height="50" relative="1" as="geometry">
                        <mxPoint x="340.16" y="345" as="sourcePoint"/>
                        <mxPoint x="340.16" y="365" as="targetPoint"/>
                    </mxGeometry>
                </mxCell>
                <mxCell id="69" value="" style="endArrow=classic;html=1;strokeWidth=2;" parent="1" edge="1">
                    <mxGeometry width="50" height="50" relative="1" as="geometry">
                        <mxPoint x="360.16" y="345" as="sourcePoint"/>
                        <mxPoint x="360.16" y="365" as="targetPoint"/>
                    </mxGeometry>
                </mxCell>
                <mxCell id="70" value="" style="endArrow=classic;html=1;strokeWidth=2;" parent="1" edge="1">
                    <mxGeometry width="50" height="50" relative="1" as="geometry">
                        <mxPoint x="380.32" y="345" as="sourcePoint"/>
                        <mxPoint x="380.32" y="365" as="targetPoint"/>
                    </mxGeometry>
                </mxCell>
                <mxCell id="71" value="" style="endArrow=classic;html=1;strokeWidth=2;" parent="1" edge="1">
                    <mxGeometry width="50" height="50" relative="1" as="geometry">
                        <mxPoint x="400.32" y="345" as="sourcePoint"/>
                        <mxPoint x="400.32" y="365" as="targetPoint"/>
                    </mxGeometry>
                </mxCell>
                <mxCell id="72" value="&lt;span&gt;SPI&lt;/span&gt;" style="rounded=0;whiteSpace=wrap;html=1;fillColor=none;strokeColor=none;" parent="1" vertex="1">
                    <mxGeometry x="380" y="285" width="40" height="20" as="geometry"/>
                </mxCell>
                <mxCell id="73" value="&lt;span&gt;パルス&lt;/span&gt;" style="rounded=0;whiteSpace=wrap;html=1;fillColor=none;strokeColor=none;" parent="1" vertex="1">
                    <mxGeometry x="410" y="345" width="40" height="20" as="geometry"/>
                </mxCell>
                <mxCell id="74" value="マイコン: レンダリング" style="rounded=0;whiteSpace=wrap;html=1;fillColor=none;" parent="1" vertex="1">
                    <mxGeometry x="30" y="255" width="180" height="30" as="geometry"/>
                </mxCell>
                <mxCell id="75" value="マイコン: LED駆動" style="rounded=0;whiteSpace=wrap;html=1;fillColor=none;" parent="1" vertex="1">
                    <mxGeometry x="30" y="305" width="180" height="30" as="geometry"/>
                </mxCell>
                <mxCell id="76" value="LEDマトリクス(NeoPixel × N個)" style="rounded=0;whiteSpace=wrap;html=1;fillColor=none;" parent="1" vertex="1">
                    <mxGeometry x="20" y="365" width="200" height="40" as="geometry"/>
                </mxCell>
                <mxCell id="77" value="" style="endArrow=classic;html=1;strokeWidth=2;" parent="1" edge="1">
                    <mxGeometry width="50" height="50" relative="1" as="geometry">
                        <mxPoint x="80" y="285" as="sourcePoint"/>
                        <mxPoint x="80" y="305" as="targetPoint"/>
                    </mxGeometry>
                </mxCell>
                <mxCell id="83" value="" style="endArrow=classic;html=1;strokeWidth=2;" parent="1" edge="1">
                    <mxGeometry width="50" height="50" relative="1" as="geometry">
                        <mxPoint x="110" y="335" as="sourcePoint"/>
                        <mxPoint x="110" y="365" as="targetPoint"/>
                    </mxGeometry>
                </mxCell>
                <mxCell id="84" value="&lt;span style=&quot;&quot;&gt;フレームバッファ&lt;/span&gt;" style="rounded=0;whiteSpace=wrap;html=1;fillColor=none;strokeColor=none;labelBackgroundColor=none;" parent="1" vertex="1">
                    <mxGeometry x="80" y="285" width="110" height="20" as="geometry"/>
                </mxCell>
                <mxCell id="85" value="&lt;span style=&quot;&quot;&gt;パルス&lt;/span&gt;" style="rounded=0;whiteSpace=wrap;html=1;fillColor=none;strokeColor=none;labelBackgroundColor=none;" parent="1" vertex="1">
                    <mxGeometry x="120" y="345" width="40" height="20" as="geometry"/>
                </mxCell>
                <mxCell id="89" value="&lt;span style=&quot;&quot;&gt;&lt;font style=&quot;font-size: 20px;&quot;&gt;旧手法&lt;/font&gt;&lt;/span&gt;" style="rounded=0;whiteSpace=wrap;html=1;fillColor=none;strokeColor=none;labelBackgroundColor=none;" parent="1" vertex="1">
                    <mxGeometry x="65" y="215" width="110" height="30" as="geometry"/>
                </mxCell>
                <mxCell id="90" value="&lt;span style=&quot;&quot;&gt;&lt;font style=&quot;font-size: 20px;&quot;&gt;提案手法&lt;/font&gt;&lt;/span&gt;" style="rounded=0;whiteSpace=wrap;html=1;fillColor=none;strokeColor=none;labelBackgroundColor=none;" parent="1" vertex="1">
                    <mxGeometry x="325" y="215" width="110" height="30" as="geometry"/>
                </mxCell>
                <mxCell id="91" value="" style="shape=flexArrow;endArrow=classic;html=1;fillColor=#4D4D4D;gradientColor=none;strokeWidth=0;strokeColor=none;" parent="1" edge="1">
                    <mxGeometry width="50" height="50" relative="1" as="geometry">
                        <mxPoint x="230" y="324.84000000000003" as="sourcePoint"/>
                        <mxPoint x="270" y="324.84000000000003" as="targetPoint"/>
                    </mxGeometry>
                </mxCell>
                <mxCell id="92" value="" style="rounded=0;whiteSpace=wrap;html=1;fillColor=#f5f5f5;fontColor=#333333;strokeColor=#666666;" parent="1" vertex="1">
                    <mxGeometry x="20" y="460" width="120" height="150" as="geometry"/>
                </mxCell>
                <mxCell id="93" value="レンダリング" style="rounded=0;whiteSpace=wrap;html=1;" parent="1" vertex="1">
                    <mxGeometry x="30" y="470" width="100" height="30" as="geometry"/>
                </mxCell>
                <mxCell id="94" value="" style="rounded=0;whiteSpace=wrap;html=1;fillColor=#f5f5f5;fontColor=#333333;strokeColor=#666666;" parent="1" vertex="1">
                    <mxGeometry x="640" y="390" width="200" height="120" as="geometry"/>
                </mxCell>
                <mxCell id="95" value="LED駆動" style="rounded=0;whiteSpace=wrap;html=1;" parent="1" vertex="1">
                    <mxGeometry x="520" y="400" width="100" height="40" as="geometry"/>
                </mxCell>
                <mxCell id="96" value="フレームバッファ" style="rounded=0;whiteSpace=wrap;html=1;" parent="1" vertex="1">
                    <mxGeometry x="30" y="520" width="100" height="30" as="geometry"/>
                </mxCell>
                <mxCell id="97" value="D0" style="rounded=0;whiteSpace=wrap;html=1;" parent="1" vertex="1">
                    <mxGeometry x="660" y="400" width="40" height="40" as="geometry"/>
                </mxCell>
                <mxCell id="98" value="D1" style="rounded=0;whiteSpace=wrap;html=1;" parent="1" vertex="1">
                    <mxGeometry x="720" y="400" width="40" height="40" as="geometry"/>
                </mxCell>
                <mxCell id="99" value="D2" style="rounded=0;whiteSpace=wrap;html=1;" parent="1" vertex="1">
                    <mxGeometry x="780" y="400" width="40" height="40" as="geometry"/>
                </mxCell>
                <mxCell id="100" value="" style="endArrow=classic;html=1;" parent="1" edge="1">
                    <mxGeometry width="50" height="50" relative="1" as="geometry">
                        <mxPoint x="700" y="419.73" as="sourcePoint"/>
                        <mxPoint x="720" y="419.73" as="targetPoint"/>
                        <Array as="points">
                            <mxPoint x="720" y="419.73"/>
                        </Array>
                    </mxGeometry>
                </mxCell>
                <mxCell id="101" value="" style="endArrow=classic;html=1;" parent="1" edge="1">
                    <mxGeometry width="50" height="50" relative="1" as="geometry">
                        <mxPoint x="760" y="419.73" as="sourcePoint"/>
                        <mxPoint x="780" y="419.73" as="targetPoint"/>
                        <Array as="points">
                            <mxPoint x="780" y="419.73"/>
                        </Array>
                    </mxGeometry>
                </mxCell>
                <mxCell id="102" value="Dn" style="rounded=0;whiteSpace=wrap;html=1;" parent="1" vertex="1">
                    <mxGeometry x="780" y="460" width="40" height="40" as="geometry"/>
                </mxCell>
                <mxCell id="103" value="Dn-1" style="rounded=0;whiteSpace=wrap;html=1;" parent="1" vertex="1">
                    <mxGeometry x="720" y="460" width="40" height="40" as="geometry"/>
                </mxCell>
                <mxCell id="104" value="Dn-2" style="rounded=0;whiteSpace=wrap;html=1;" parent="1" vertex="1">
                    <mxGeometry x="660" y="460" width="40" height="40" as="geometry"/>
                </mxCell>
                <mxCell id="105" value="" style="endArrow=classic;html=1;" parent="1" edge="1">
                    <mxGeometry width="50" height="50" relative="1" as="geometry">
                        <mxPoint x="700" y="479.90999999999997" as="sourcePoint"/>
                        <mxPoint x="720" y="479.90999999999997" as="targetPoint"/>
                        <Array as="points">
                            <mxPoint x="720" y="479.90999999999997"/>
                        </Array>
                    </mxGeometry>
                </mxCell>
                <mxCell id="106" value="" style="endArrow=classic;html=1;" parent="1" edge="1">
                    <mxGeometry width="50" height="50" relative="1" as="geometry">
                        <mxPoint x="760" y="479.90999999999997" as="sourcePoint"/>
                        <mxPoint x="780" y="479.90999999999997" as="targetPoint"/>
                        <Array as="points">
                            <mxPoint x="780" y="479.90999999999997"/>
                        </Array>
                    </mxGeometry>
                </mxCell>
                <mxCell id="107" value="" style="endArrow=classic;html=1;dashed=1;" parent="1" edge="1">
                    <mxGeometry width="50" height="50" relative="1" as="geometry">
                        <mxPoint x="820" y="420" as="sourcePoint"/>
                        <mxPoint x="660" y="480" as="targetPoint"/>
                        <Array as="points">
                            <mxPoint x="830" y="420"/>
                            <mxPoint x="830" y="450"/>
                            <mxPoint x="650" y="450"/>
                            <mxPoint x="650" y="480"/>
                        </Array>
                    </mxGeometry>
                </mxCell>
                <mxCell id="108" value="&lt;span style=&quot;background-color: rgb(255, 255, 255);&quot;&gt;SBC (RPi4)&lt;/span&gt;" style="rounded=0;whiteSpace=wrap;html=1;fillColor=none;strokeColor=none;" parent="1" vertex="1">
                    <mxGeometry x="20" y="450" width="70" height="20" as="geometry"/>
                </mxCell>
                <mxCell id="111" value="" style="endArrow=classic;html=1;entryX=0;entryY=0.5;entryDx=0;entryDy=0;" parent="1" target="97" edge="1">
                    <mxGeometry width="50" height="50" relative="1" as="geometry">
                        <mxPoint x="620" y="419.88" as="sourcePoint"/>
                        <mxPoint x="650" y="420" as="targetPoint"/>
                    </mxGeometry>
                </mxCell>
                <mxCell id="112" value="&lt;span style=&quot;background-color: rgb(255, 255, 255);&quot;&gt;LEDマトリクス&lt;/span&gt;" style="rounded=0;whiteSpace=wrap;html=1;fillColor=none;strokeColor=none;" parent="1" vertex="1">
                    <mxGeometry x="640" y="380" width="100" height="20" as="geometry"/>
                </mxCell>
                <mxCell id="113" value="" style="endArrow=classic;html=1;" parent="1" edge="1">
                    <mxGeometry width="50" height="50" relative="1" as="geometry">
                        <mxPoint x="79.86000000000001" y="500" as="sourcePoint"/>
                        <mxPoint x="79.86000000000001" y="520" as="targetPoint"/>
                    </mxGeometry>
                </mxCell>
                <mxCell id="114" value="" style="endArrow=classic;html=1;" parent="1" edge="1">
                    <mxGeometry width="50" height="50" relative="1" as="geometry">
                        <mxPoint x="79.83000000000001" y="550" as="sourcePoint"/>
                        <mxPoint x="79.83000000000001" y="570" as="targetPoint"/>
                    </mxGeometry>
                </mxCell>
                <mxCell id="115" value="SPIホスト" style="rounded=0;whiteSpace=wrap;html=1;" parent="1" vertex="1">
                    <mxGeometry x="30" y="570" width="100" height="30" as="geometry"/>
                </mxCell>
                <mxCell id="116" value="" style="rounded=0;whiteSpace=wrap;html=1;fillColor=#f5f5f5;fontColor=#333333;strokeColor=#666666;" parent="1" vertex="1">
                    <mxGeometry x="180" y="460" width="330" height="150" as="geometry"/>
                </mxCell>
                <mxCell id="117" value="SPIクライアント" style="rounded=0;whiteSpace=wrap;html=1;" parent="1" vertex="1">
                    <mxGeometry x="190" y="470" width="100" height="30" as="geometry"/>
                </mxCell>
                <mxCell id="119" value="&lt;span style=&quot;background-color: rgb(255, 255, 255);&quot;&gt;SBC (RPi4)&lt;/span&gt;" style="rounded=0;whiteSpace=wrap;html=1;fillColor=none;strokeColor=none;" parent="1" vertex="1">
                    <mxGeometry x="180" y="450" width="70" height="20" as="geometry"/>
                </mxCell>
                <mxCell id="122" value="ダブルバッファ" style="rounded=0;whiteSpace=wrap;html=1;" parent="1" vertex="1">
                    <mxGeometry x="310" y="470" width="100" height="130" as="geometry"/>
                </mxCell>
                <mxCell id="123" value="" style="endArrow=classic;html=1;" parent="1" edge="1">
                    <mxGeometry width="50" height="50" relative="1" as="geometry">
                        <mxPoint x="130" y="585" as="sourcePoint"/>
                        <mxPoint x="190" y="485" as="targetPoint"/>
                        <Array as="points">
                            <mxPoint x="160" y="585"/>
                            <mxPoint x="160" y="550"/>
                            <mxPoint x="160" y="485"/>
                        </Array>
                    </mxGeometry>
                </mxCell>
                <mxCell id="124" value="" style="endArrow=classic;html=1;" parent="1" edge="1">
                    <mxGeometry width="50" height="50" relative="1" as="geometry">
                        <mxPoint x="240" y="640" as="sourcePoint"/>
                        <mxPoint x="290" y="680" as="targetPoint"/>
                        <Array as="points">
                            <mxPoint x="240" y="680"/>
                        </Array>
                    </mxGeometry>
                </mxCell>
            </root>
        </mxGraphModel>
    </diagram>
</mxfile>